<svg id="Layer_1" xmlns="http://www.w3.org/2000/svg" viewBox="0 0 260 260"><style>.st0{fill:#50bfeb}.st1{fill:#fff}</style><path class="st0" d="M7.1 170.7c10.4 48.7 74.1 71.3 142.1 50.5 68-20.8 114.7-77.2 104.3-125.9-10.4-48.7-74-71.3-142.1-50.5C43.4 65.6-3.3 122 7.1 170.7"/><path class="st1" d="M102.8 122.7c-6.9 0-10.4-2.9-10.4-8.7v-1.6c0-6.1 3.5-9.2 10.4-9.2h4.2V92.4c0-4.1 1-7.2 3-9.1 2-1.9 4.8-2.9 8.3-2.9h2.1c3.4 0 6.1.9 8.1 2.6 2 1.7 3 4.9 3 9.4v10.9h15c3.5 0 6.1.7 7.7 2.2 1.6 1.5 2.4 3.7 2.4 6.6v1.4c0 6.1-3.5 9.2-10.4 9.2H131v36.7c0 4.2.7 7.4 2.2 9.5 1.5 2.1 3.9 3.2 7.3 3.2 2.6 0 4.8-.6 6.5-1.7 1.8-1.1 3.3-2.5 4.6-4.1.1-.1.5 0 1.1.4.6.4 1.3.9 2 1.8.7.8 1.4 1.9 1.9 3.1.6 1.2.9 2.7.9 4.5 0 4.4-2 8.1-6.1 11.1-4.1 3.1-9.6 4.6-16.7 4.6-9.5 0-16.6-2.5-21.1-7.4s-6.8-12.3-6.8-22.1v-39.5h-4z"/></svg>